<svg viewBox="0 0 288 555" version="1.1" xmlns="http://www.w3.org/2000/svg" xmlns:xlink="http://www.w3.org/1999/xlink">
    <title>1AC35432-7355-4CEC-9CA7-E023F893B45F</title>
    <defs>
        <linearGradient x1="100%" y1="50%" x2="0%" y2="50%" id="linearGradient-1">
            <stop stop-color="#F5F8FB" offset="0%"></stop>
            <stop stop-color="#E1E6ED" offset="100%"></stop>
        </linearGradient>
        <linearGradient x1="100%" y1="50%" x2="0%" y2="50%" id="linearGradient-2">
            <stop stop-color="#F5F8FB" offset="0%"></stop>
            <stop stop-color="#E1E6ED" offset="100%"></stop>
        </linearGradient>
        <linearGradient x1="100%" y1="50%" x2="0%" y2="50%" id="linearGradient-3">
            <stop stop-color="#F5F8FB" offset="0%"></stop>
            <stop stop-color="#E1E6ED" offset="100%"></stop>
        </linearGradient>
        <linearGradient x1="100%" y1="50%" x2="0%" y2="50%" id="linearGradient-4">
            <stop stop-color="#F5F8FB" offset="0%"></stop>
            <stop stop-color="#E1E6ED" offset="100%"></stop>
        </linearGradient>
        <linearGradient x1="100%" y1="50%" x2="0%" y2="50%" id="linearGradient-5">
            <stop stop-color="#F5F8FB" offset="0%"></stop>
            <stop stop-color="#E1E6ED" offset="100%"></stop>
        </linearGradient>
        <linearGradient x1="100%" y1="50%" x2="0%" y2="50%" id="linearGradient-6">
            <stop stop-color="#F5F8FB" offset="0%"></stop>
            <stop stop-color="#E1E6ED" offset="100%"></stop>
        </linearGradient>
        <linearGradient x1="100%" y1="50%" x2="0%" y2="50%" id="linearGradient-7">
            <stop stop-color="#F5F8FB" offset="0%"></stop>
            <stop stop-color="#E1E6ED" offset="100%"></stop>
        </linearGradient>
        <linearGradient x1="100%" y1="50%" x2="0%" y2="50%" id="linearGradient-8">
            <stop stop-color="#F5F8FB" offset="0%"></stop>
            <stop stop-color="#E1E6ED" offset="100%"></stop>
        </linearGradient>
        <linearGradient x1="100%" y1="50%" x2="0%" y2="50%" id="linearGradient-9">
            <stop stop-color="#F5F8FB" offset="0%"></stop>
            <stop stop-color="#E1E6ED" offset="100%"></stop>
        </linearGradient>
    </defs>
    <g id="Skeleton-Loader" stroke="none" stroke-width="1" fill="none" fill-rule="evenodd">
        <g id="Skeleton-Loader---Trip-cart" transform="translate(-16.000000, -1900.000000)">
            <g id="Trip-cart---Insurance-card-Copy" transform="translate(16.000000, 1900.000000)">
                <rect id="Rectangle" fill="#FFFFFF" x="0" y="0" width="288" height="555"></rect>
                <rect id="Rectangle-Copy" fill="url(#linearGradient-1)" x="0" y="0" width="288" height="16" rx="1"></rect>
                <g id="Group-10" transform="translate(0.000000, 40.000000)">
                    <rect id="Rectangle-Copy-12" fill="url(#linearGradient-1)" x="0" y="0" width="288" height="16" rx="1"></rect>
                    <rect id="Rectangle-Copy-41" fill="url(#linearGradient-2)" x="0" y="24" width="194" height="16" rx="1"></rect>
                </g>
                <g id="Group-10-Copy" transform="translate(0.000000, 224.000000)">
                    <rect id="Rectangle-Copy-12" fill="url(#linearGradient-1)" x="0" y="0" width="288" height="16" rx="1"></rect>
                    <rect id="Rectangle-Copy-41" fill="url(#linearGradient-2)" x="0" y="24" width="194" height="16" rx="1"></rect>
                </g>
                <g id="Group-9" transform="translate(0.000000, 96.000000)">
                    <g id="Group-4">
                        <rect id="Rectangle-Copy-36" fill="url(#linearGradient-3)" x="24" y="0" width="217" height="16" rx="1"></rect>
                        <rect id="Rectangle-Copy-31" fill="url(#linearGradient-4)" x="0" y="0" width="16" height="16" rx="1"></rect>
                    </g>
                    <g id="Group-5" transform="translate(0.000000, 24.000000)">
                        <rect id="Rectangle-Copy-37" fill="url(#linearGradient-3)" x="24" y="0" width="217" height="16" rx="1"></rect>
                        <rect id="Rectangle-Copy-32" fill="url(#linearGradient-4)" x="0" y="0" width="16" height="16" rx="1"></rect>
                    </g>
                    <g id="Group-6" transform="translate(0.000000, 48.000000)">
                        <rect id="Rectangle-Copy-38" fill="url(#linearGradient-3)" x="24" y="0" width="217" height="16" rx="1"></rect>
                        <rect id="Rectangle-Copy-33" fill="url(#linearGradient-4)" x="0" y="0" width="16" height="16" rx="1"></rect>
                    </g>
                    <g id="Group-7" transform="translate(0.000000, 72.000000)">
                        <rect id="Rectangle-Copy-39" fill="url(#linearGradient-3)" x="24" y="0" width="217" height="16" rx="1"></rect>
                        <rect id="Rectangle-Copy-34" fill="url(#linearGradient-4)" x="0" y="0" width="16" height="16" rx="1"></rect>
                    </g>
                    <g id="Group-8" transform="translate(0.000000, 96.000000)">
                        <rect id="Rectangle-Copy-40" fill="url(#linearGradient-3)" x="24" y="0" width="217" height="16" rx="1"></rect>
                        <rect id="Rectangle-Copy-35" fill="url(#linearGradient-4)" x="0" y="0" width="16" height="16" rx="1"></rect>
                    </g>
                </g>
                <rect id="Rectangle-Copy-2" fill="url(#linearGradient-5)" x="0" y="288" width="241" height="16" rx="1"></rect>
                <rect id="Rectangle-Copy-43" fill="url(#linearGradient-6)" x="0" y="376" width="114" height="12" rx="1"></rect>
                <rect id="Rectangle-Copy-42" fill="url(#linearGradient-7)" x="0" y="320" width="288" height="48" rx="1"></rect>
                <rect id="Rectangle-Copy-44" fill="url(#linearGradient-8)" x="0" y="412" width="288" height="56" rx="1"></rect>
                <rect id="Rectangle-Copy-45" fill="url(#linearGradient-9)" x="0" y="484" width="288" height="71" rx="1"></rect>
            </g>
        </g>
    </g>
</svg>
