<svg viewBox="0 0 288 952" version="1.1" xmlns="http://www.w3.org/2000/svg" xmlns:xlink="http://www.w3.org/1999/xlink">
<title>B44FA968-70F9-4ECF-AD22-27ACDDB12A01</title>
<defs>
    <linearGradient x1="100%" y1="50%" x2="0%" y2="50%" id="linearGradient-1">
        <stop stop-color="#F5F8FB" offset="0%"></stop>
        <stop stop-color="#E1E6ED" offset="100%"></stop>
    </linearGradient>
    <linearGradient x1="100%" y1="50%" x2="0%" y2="50%" id="linearGradient-2">
        <stop stop-color="#F5F8FB" offset="0%"></stop>
        <stop stop-color="#E1E6ED" offset="100%"></stop>
    </linearGradient>
    <linearGradient x1="100%" y1="50%" x2="0%" y2="50%" id="linearGradient-3">
        <stop stop-color="#F5F8FB" offset="0%"></stop>
        <stop stop-color="#E1E6ED" offset="100%"></stop>
    </linearGradient>
    <linearGradient x1="100%" y1="50%" x2="0%" y2="50%" id="linearGradient-4">
        <stop stop-color="#F5F8FB" offset="0%"></stop>
        <stop stop-color="#E1E6ED" offset="100%"></stop>
    </linearGradient>
    <linearGradient x1="100%" y1="50%" x2="0%" y2="50%" id="linearGradient-5">
        <stop stop-color="#F5F8FB" offset="0%"></stop>
        <stop stop-color="#E1E6ED" offset="100%"></stop>
    </linearGradient>
    <linearGradient x1="100%" y1="50%" x2="0%" y2="50%" id="linearGradient-6">
        <stop stop-color="#F5F8FB" offset="0%"></stop>
        <stop stop-color="#E1E6ED" offset="100%"></stop>
    </linearGradient>
    <linearGradient x1="100%" y1="50%" x2="0%" y2="50%" id="linearGradient-7">
        <stop stop-color="#F5F8FB" offset="0%"></stop>
        <stop stop-color="#E1E6ED" offset="100%"></stop>
    </linearGradient>
</defs>
<g id="Skeleton-Loader" stroke="none" stroke-width="1" fill="none" fill-rule="evenodd">
    <g id="Skeleton-Loader---Billing-Information" transform="translate(-16.000000, -390.000000)">
        <g id="Billing-Info-card-Copy" transform="translate(16.000000, 390.000000)">
            <rect id="Rectangle" fill="#FFFFFF" x="0" y="0" width="288" height="952"></rect>
            <rect id="Rectangle-Copy-28" fill="url(#linearGradient-1)" x="0" y="448" width="113" height="16" rx="1"></rect>
            <rect id="Rectangle-Copy-32" fill="url(#linearGradient-2)" x="0" y="936" width="17" height="16" rx="1"></rect>
            <rect id="Rectangle-Copy-36" fill="url(#linearGradient-3)" x="25" y="936" width="263" height="16" rx="1"></rect>
            <rect id="Rectangle-Copy" fill="url(#linearGradient-4)" x="0" y="0" width="140" height="16" rx="1"></rect>
            <rect id="Rectangle-Copy-12" fill="url(#linearGradient-5)" x="0" y="24" width="70" height="16" rx="1"></rect>
            <rect id="Rectangle-Copy-4" fill="url(#linearGradient-6)" x="0" y="80" width="288" height="56" rx="1"></rect>
            <rect id="Rectangle-Copy-6" fill="url(#linearGradient-6)" x="0" y="152" width="288" height="56" rx="1"></rect>
            <rect id="Rectangle-Copy-11" fill="url(#linearGradient-6)" x="0" y="224" width="288" height="56" rx="1"></rect>
            <rect id="Rectangle-Copy-13" fill="url(#linearGradient-7)" x="0" y="296" width="136" height="56" rx="1"></rect>
            <rect id="Rectangle-Copy-14" fill="url(#linearGradient-7)" x="0" y="368" width="136" height="56" rx="1"></rect>
            <rect id="Rectangle-Copy-15" fill="url(#linearGradient-7)" x="0" y="864" width="136" height="56" rx="1"></rect>
            <rect id="Rectangle-Copy-33" fill="url(#linearGradient-7)" x="152" y="368" width="136" height="56" rx="1"></rect>
            <rect id="Rectangle-Copy-35" fill="url(#linearGradient-7)" x="152" y="864" width="136" height="56" rx="1"></rect>
            <rect id="Rectangle-Copy-18" fill="url(#linearGradient-6)" x="0" y="480" width="288" height="56" rx="1"></rect>
            <rect id="Rectangle-Copy-19" fill="url(#linearGradient-6)" x="0" y="552" width="288" height="56" rx="1"></rect>
            <rect id="Rectangle-Copy-20" fill="url(#linearGradient-6)" x="0" y="648" width="288" height="56" rx="1"></rect>
            <rect id="Rectangle-Copy-21" fill="url(#linearGradient-6)" x="0" y="720" width="288" height="56" rx="1"></rect>
            <rect id="Rectangle-Copy-22" fill="url(#linearGradient-6)" x="0" y="792" width="288" height="56" rx="1"></rect>
        </g>
    </g>
</g>
</svg>
