<svg viewBox="0 0 288 644" version="1.1" xmlns="http://www.w3.org/2000/svg" xmlns:xlink="http://www.w3.org/1999/xlink">
    <title>5D483990-BB8A-457F-86CA-B42FB79FDD0C</title>
    <defs>
        <linearGradient x1="100%" y1="50%" x2="0%" y2="50%" id="linearGradient-1">
            <stop stop-color="#F5F8FB" offset="0%"></stop>
            <stop stop-color="#E1E6ED" offset="100%"></stop>
        </linearGradient>
        <linearGradient x1="100%" y1="50%" x2="0%" y2="50%" id="linearGradient-2">
            <stop stop-color="#F5F8FB" offset="0%"></stop>
            <stop stop-color="#E1E6ED" offset="100%"></stop>
        </linearGradient>
        <linearGradient x1="100%" y1="50%" x2="0%" y2="50%" id="linearGradient-3">
            <stop stop-color="#F5F8FB" offset="0%"></stop>
            <stop stop-color="#E1E6ED" offset="100%"></stop>
        </linearGradient>
        <linearGradient x1="100%" y1="50%" x2="0%" y2="50%" id="linearGradient-4">
            <stop stop-color="#F5F8FB" offset="0%"></stop>
            <stop stop-color="#E1E6ED" offset="100%"></stop>
        </linearGradient>
        <linearGradient x1="100%" y1="50%" x2="0%" y2="50%" id="linearGradient-5">
            <stop stop-color="#F5F8FB" offset="0%"></stop>
            <stop stop-color="#E1E6ED" offset="100%"></stop>
        </linearGradient>
        <linearGradient x1="100%" y1="50%" x2="0%" y2="50%" id="linearGradient-6">
            <stop stop-color="#F5F8FB" offset="0%"></stop>
            <stop stop-color="#E1E6ED" offset="100%"></stop>
        </linearGradient>
        <linearGradient x1="100%" y1="50%" x2="0%" y2="50%" id="linearGradient-7">
            <stop stop-color="#F5F8FB" offset="0%"></stop>
            <stop stop-color="#E1E6ED" offset="100%"></stop>
        </linearGradient>
        <linearGradient x1="100%" y1="50%" x2="0%" y2="50%" id="linearGradient-8">
            <stop stop-color="#F5F8FB" offset="0%"></stop>
            <stop stop-color="#E1E6ED" offset="100%"></stop>
        </linearGradient>
        <linearGradient x1="100%" y1="50%" x2="0%" y2="50%" id="linearGradient-9">
            <stop stop-color="#F5F8FB" offset="0%"></stop>
            <stop stop-color="#E1E6ED" offset="100%"></stop>
        </linearGradient>
        <linearGradient x1="100%" y1="50%" x2="0%" y2="50%" id="linearGradient-10">
            <stop stop-color="#F5F8FB" offset="0%"></stop>
            <stop stop-color="#E1E6ED" offset="100%"></stop>
        </linearGradient>
        <linearGradient x1="100%" y1="50%" x2="0%" y2="50%" id="linearGradient-11">
            <stop stop-color="#F5F8FB" offset="0%"></stop>
            <stop stop-color="#E1E6ED" offset="100%"></stop>
        </linearGradient>
    </defs>
    <g id="Skeleton-Loader" stroke="none" stroke-width="1" fill="none" fill-rule="evenodd">
        <g id="Skeleton-Loader---Trip-cart" transform="translate(-16.000000, -2495.000000)">
            <g id="Cross-Sell-Copy" transform="translate(16.000000, 2495.000000)">
                <rect id="Rectangle" fill="#FFFFFF" x="0" y="0" width="288" height="644"></rect>
                <rect id="Rectangle-Copy" fill="url(#linearGradient-1)" x="0" y="0" width="114" height="16" rx="1"></rect>
                <g id="Group-10" transform="translate(0.000000, 40.000000)">
                    <rect id="Rectangle-Copy-12" fill="url(#linearGradient-2)" x="0" y="0" width="53" height="16" rx="1"></rect>
                    <rect id="Rectangle-Copy-41" fill="url(#linearGradient-3)" x="0" y="24" width="194" height="16" rx="1"></rect>
                    <rect id="Rectangle-Copy-46" fill="url(#linearGradient-4)" x="0" y="56" width="288" height="76" rx="1"></rect>
                </g>
                <g id="Group-10-Copy" transform="translate(0.000000, 183.000000)">
                    <rect id="Rectangle-Copy-12" fill="url(#linearGradient-5)" x="0" y="54" width="288" height="16" rx="1"></rect>
                    <rect id="Rectangle-Copy-48" fill="url(#linearGradient-6)" x="0" y="0" width="89" height="46" rx="1"></rect>
                    <rect id="Rectangle-Copy-49" fill="url(#linearGradient-7)" x="99" y="0" width="39" height="46" rx="1"></rect>
                    <rect id="Rectangle-Copy-41" fill="url(#linearGradient-8)" x="0" y="86" width="63" height="16" rx="1"></rect>
                    <rect id="Rectangle-Copy-47" fill="url(#linearGradient-9)" x="0" y="110" width="144" height="16" rx="1"></rect>
                </g>
                <g id="Group-10-Copy-2" transform="translate(0.000000, 336.000000)">
                    <rect id="Rectangle-Copy-12" fill="url(#linearGradient-5)" x="0" y="54" width="288" height="16" rx="1"></rect>
                    <rect id="Rectangle-Copy-48" fill="url(#linearGradient-6)" x="0" y="0" width="89" height="46" rx="1"></rect>
                    <rect id="Rectangle-Copy-50" fill="url(#linearGradient-10)" x="0" y="150" width="288" height="71" rx="1"></rect>
                    <rect id="Rectangle-Copy-51" fill="url(#linearGradient-10)" x="0" y="237" width="288" height="71" rx="1"></rect>
                    <rect id="Rectangle-Copy-49" fill="url(#linearGradient-7)" x="99" y="0" width="39" height="46" rx="1"></rect>
                    <rect id="Rectangle-Copy-41" fill="url(#linearGradient-8)" x="0" y="86" width="63" height="16" rx="1"></rect>
                    <rect id="Rectangle-Copy-47" fill="url(#linearGradient-9)" x="0" y="110" width="144" height="16" rx="1"></rect>
                </g>
                <rect id="Rectangle-Copy-2" fill="url(#linearGradient-11)" x="224" y="288" width="64" height="24" rx="1"></rect>
            </g>
        </g>
    </g>
</svg>
