<svg viewBox="0 0 288 444" version="1.1" xmlns="http://www.w3.org/2000/svg" xmlns:xlink="http://www.w3.org/1999/xlink">
      <title>21A2E0E0-E8DD-4E81-9D45-A952EA381B0E</title>
      <defs>
          <linearGradient x1="100%" y1="50%" x2="0%" y2="50%" id="linearGradient-1">
              <stop stop-color="#F5F8FB" offset="0%"></stop>
              <stop stop-color="#E1E6ED" offset="100%"></stop>
          </linearGradient>
          <linearGradient x1="100%" y1="50%" x2="0%" y2="50%" id="linearGradient-2">
              <stop stop-color="#F5F8FB" offset="0%"></stop>
              <stop stop-color="#E1E6ED" offset="100%"></stop>
          </linearGradient>
          <linearGradient x1="100%" y1="50%" x2="0%" y2="50%" id="linearGradient-3">
              <stop stop-color="#F5F8FB" offset="0%"></stop>
              <stop stop-color="#E1E6ED" offset="100%"></stop>
          </linearGradient>
          <linearGradient x1="100%" y1="50%" x2="0%" y2="50%" id="linearGradient-4">
              <stop stop-color="#F5F8FB" offset="0%"></stop>
              <stop stop-color="#E1E6ED" offset="100%"></stop>
          </linearGradient>
          <linearGradient x1="100%" y1="50%" x2="0%" y2="50%" id="linearGradient-5">
              <stop stop-color="#F5F8FB" offset="0%"></stop>
              <stop stop-color="#E1E6ED" offset="100%"></stop>
          </linearGradient>
          <linearGradient x1="100%" y1="50%" x2="0%" y2="50%" id="linearGradient-6">
              <stop stop-color="#F5F8FB" offset="0%"></stop>
              <stop stop-color="#E1E6ED" offset="100%"></stop>
          </linearGradient>
          <linearGradient x1="100%" y1="50%" x2="0%" y2="50%" id="linearGradient-7">
              <stop stop-color="#F5F8FB" offset="0%"></stop>
              <stop stop-color="#E1E6ED" offset="100%"></stop>
          </linearGradient>
          <linearGradient x1="100%" y1="50%" x2="0%" y2="50%" id="linearGradient-8">
              <stop stop-color="#F5F8FB" offset="0%"></stop>
              <stop stop-color="#E1E6ED" offset="100%"></stop>
          </linearGradient>
          <linearGradient x1="100%" y1="50%" x2="0%" y2="50%" id="linearGradient-9">
              <stop stop-color="#F5F8FB" offset="0%"></stop>
              <stop stop-color="#E1E6ED" offset="100%"></stop>
          </linearGradient>
          <linearGradient x1="100%" y1="50%" x2="0%" y2="50%" id="linearGradient-10">
              <stop stop-color="#F5F8FB" offset="0%"></stop>
              <stop stop-color="#E1E6ED" offset="100%"></stop>
          </linearGradient>
          <linearGradient x1="100%" y1="50%" x2="0%" y2="50%" id="linearGradient-11">
              <stop stop-color="#F5F8FB" offset="0%"></stop>
              <stop stop-color="#E1E6ED" offset="100%"></stop>
          </linearGradient>
      </defs>
      <g id="Skeleton-Loader" stroke="none" stroke-width="1" fill="none" fill-rule="evenodd">
          <g id="Skeleton-Loader---Trip-cart" transform="translate(-16.000000, -472.000000)">
              <g id="Group-12" transform="translate(16.000000, 472.000000)">
                  <rect id="background" fill="#FFFFFF" x="0" y="0" width="288" height="444" rx="2"></rect>
                  <rect id="Rectangle" fill="#FFFFFF" x="0" y="0" width="288" height="444"></rect>
                  <g id="Group-11">
                      <g id="Group">
                          <rect id="Rectangle-Copy" fill="url(#linearGradient-1)" x="0" y="0" width="140" height="16" rx="1"></rect>
                          <rect id="Rectangle-Copy-12" fill="url(#linearGradient-2)" x="0" y="24" width="70" height="16" rx="1"></rect>
                          <rect id="Rectangle-Copy-2" fill="url(#linearGradient-3)" x="0" y="48" width="110" height="16" rx="1"></rect>
                          <rect id="Rectangle-Copy-3" fill="url(#linearGradient-4)" x="233" y="0" width="55" height="16" rx="1"></rect>
                      </g>
                      <g id="Landing-Page---Product-Flight-" transform="translate(0.000000, 88.000000)">
                          <rect id="Rectangle-Copy-6" fill="url(#linearGradient-5)" x="0" y="0" width="177" height="16" rx="1"></rect>
                          <rect id="Rectangle-Copy-23" fill="url(#linearGradient-4)" x="233" y="0" width="55" height="16" rx="1"></rect>
                          <rect id="Rectangle-Copy-7" fill="url(#linearGradient-6)" x="38" y="32" width="139" height="16" rx="1"></rect>
                          <rect id="Rectangle-Copy-13" fill="url(#linearGradient-7)" x="0" y="32" width="30" height="30" rx="1"></rect>
                          <rect id="Rectangle-Copy-9" fill="url(#linearGradient-8)" x="0" y="70" width="80" height="16" rx="1"></rect>
                          <rect id="Rectangle-Copy-15" fill="url(#linearGradient-9)" x="0" y="94" width="38" height="16" rx="1"></rect>
                          <rect id="Rectangle-Copy-16" fill="url(#linearGradient-9)" x="249" y="94" width="38" height="16" rx="1"></rect>
                          <rect id="Rectangle-Copy-14" fill="url(#linearGradient-8)" x="207" y="70" width="80" height="16" rx="1"></rect>
                      </g>
                      <g id="Landing-Page---Product-Flight--Copy-2" transform="translate(0.000000, 222.000000)">
                          <rect id="Rectangle-Copy-6" fill="url(#linearGradient-5)" x="0" y="0" width="177" height="16" rx="1"></rect>
                          <rect id="Rectangle-Copy-23" fill="url(#linearGradient-4)" x="233" y="0" width="55" height="16" rx="1"></rect>
                          <rect id="Rectangle-Copy-7" fill="url(#linearGradient-6)" x="38" y="32" width="139" height="16" rx="1"></rect>
                          <rect id="Rectangle-Copy-13" fill="url(#linearGradient-7)" x="0" y="32" width="30" height="30" rx="1"></rect>
                          <rect id="Rectangle-Copy-9" fill="url(#linearGradient-8)" x="0" y="70" width="80" height="16" rx="1"></rect>
                          <rect id="Rectangle-Copy-15" fill="url(#linearGradient-9)" x="0" y="94" width="38" height="16" rx="1"></rect>
                          <rect id="Rectangle-Copy-16" fill="url(#linearGradient-9)" x="249" y="94" width="38" height="16" rx="1"></rect>
                          <rect id="Rectangle-Copy-14" fill="url(#linearGradient-8)" x="207" y="70" width="80" height="16" rx="1"></rect>
                      </g>
                      <g id="Landing-Page---Product-Flight--Copy" transform="translate(0.000000, 356.000000)">
                          <rect id="Rectangle-Copy-17" fill="url(#linearGradient-10)" x="0" y="0" width="287" height="16" rx="1"></rect>
                          <rect id="Rectangle-Copy-18" fill="url(#linearGradient-10)" x="0" y="24" width="287" height="16" rx="1"></rect>
                          <rect id="Rectangle-Copy-19" fill="url(#linearGradient-8)" x="0" y="48" width="80" height="16" rx="1"></rect>
                          <rect id="Rectangle-Copy-20" fill="url(#linearGradient-11)" x="0" y="72" width="194" height="16" rx="1"></rect>
                      </g>
                  </g>
              </g>
          </g>
      </g>
  </svg>
