<?xml version="1.0" encoding="UTF-8"?>
<svg viewBox="0 0 288 256" version="1.1" xmlns="http://www.w3.org/2000/svg" xmlns:xlink="http://www.w3.org/1999/xlink">
    <title>C22C5617-49B5-4081-8BA2-E4EDE4B8B31C</title>
    <defs>
        <linearGradient x1="100%" y1="50%" x2="0%" y2="50%" id="linearGradient-1">
            <stop stop-color="#F5F8FB" offset="0%"></stop>
            <stop stop-color="#E1E6ED" offset="100%"></stop>
        </linearGradient>
        <linearGradient x1="100%" y1="50%" x2="0%" y2="50%" id="linearGradient-2">
            <stop stop-color="#F5F8FB" offset="0%"></stop>
            <stop stop-color="#E1E6ED" offset="100%"></stop>
        </linearGradient>
        <linearGradient x1="100%" y1="50%" x2="0%" y2="50%" id="linearGradient-3">
            <stop stop-color="#F5F8FB" offset="0%"></stop>
            <stop stop-color="#E1E6ED" offset="100%"></stop>
        </linearGradient>
        <linearGradient x1="100%" y1="50%" x2="0%" y2="50%" id="linearGradient-4">
            <stop stop-color="#F5F8FB" offset="0%"></stop>
            <stop stop-color="#E1E6ED" offset="100%"></stop>
        </linearGradient>
        <linearGradient x1="100%" y1="50%" x2="0%" y2="50%" id="linearGradient-5">
            <stop stop-color="#F5F8FB" offset="0%"></stop>
            <stop stop-color="#E1E6ED" offset="100%"></stop>
        </linearGradient>
    </defs>
    <g id="Loaders" stroke="none" stroke-width="1" fill="none" fill-rule="evenodd">
        <g id="Skeleton-Loader---Billing-Information" transform="translate(-16.000000, -2543.000000)">
            <g id="Trip-cart---Hotel-card-Copy-3" transform="translate(16.000000, 2543.000000)">
                <rect id="Rectangle-Copy" fill="url(#linearGradient-1)" x="0" y="0" width="110" height="16" rx="1"></rect>
                <rect id="Rectangle-Copy-12" fill="url(#linearGradient-1)" x="0" y="32" width="110" height="16" rx="1"></rect>
                <rect id="Rectangle-Copy-27" fill="url(#linearGradient-1)" x="0" y="136" width="110" height="16" rx="1"></rect>
                <rect id="Rectangle-Copy-51" fill="url(#linearGradient-1)" x="0" y="240" width="110" height="16" rx="1"></rect>
                <rect id="Rectangle-Copy-26" fill="url(#linearGradient-2)" x="253" y="32" width="35" height="16" rx="1"></rect>
                <rect id="Rectangle-Copy-31" fill="url(#linearGradient-2)" x="253" y="136" width="35" height="16" rx="1"></rect>
                <rect id="Rectangle-Copy-53" fill="url(#linearGradient-2)" x="253" y="240" width="35" height="16" rx="1"></rect>
                <rect id="Rectangle-Copy-24" fill="url(#linearGradient-3)" x="0" y="56" width="55" height="16" rx="1"></rect>
                <rect id="Rectangle-Copy-48" fill="url(#linearGradient-3)" x="0" y="160" width="55" height="16" rx="1"></rect>
                <rect id="Rectangle-Copy-25" fill="url(#linearGradient-4)" x="0" y="80" width="212" height="16" rx="1"></rect>
                <rect id="Rectangle-Copy-49" fill="url(#linearGradient-4)" x="0" y="184" width="212" height="16" rx="1"></rect>
                <rect id="Rectangle-Copy-28" fill="url(#linearGradient-5)" x="0" y="104" width="144" height="16" rx="1"></rect>
                <rect id="Rectangle-Copy-50" fill="url(#linearGradient-5)" x="0" y="208" width="144" height="16" rx="1"></rect>
            </g>
        </g>
    </g>
</svg>
