<?xml version="1.0" encoding="UTF-8"?>
<svg viewBox="0 0 288 670" version="1.1" xmlns="http://www.w3.org/2000/svg" xmlns:xlink="http://www.w3.org/1999/xlink">
    <title>88670DC9-EABB-4FB2-86CC-B4BB98F4FC92</title>
    <defs>
        <linearGradient x1="100%" y1="50%" x2="0%" y2="50%" id="linearGradient-1">
            <stop stop-color="#F5F8FB" offset="0%"></stop>
            <stop stop-color="#E1E6ED" offset="100%"></stop>
        </linearGradient>
        <linearGradient x1="100%" y1="50%" x2="0%" y2="50%" id="linearGradient-2">
            <stop stop-color="#F5F8FB" offset="0%"></stop>
            <stop stop-color="#E1E6ED" offset="100%"></stop>
        </linearGradient>
        <linearGradient x1="100%" y1="50%" x2="0%" y2="50%" id="linearGradient-3">
            <stop stop-color="#F5F8FB" offset="0%"></stop>
            <stop stop-color="#E1E6ED" offset="100%"></stop>
        </linearGradient>
        <linearGradient x1="100%" y1="50%" x2="0%" y2="50%" id="linearGradient-4">
            <stop stop-color="#F5F8FB" offset="0%"></stop>
            <stop stop-color="#E1E6ED" offset="100%"></stop>
        </linearGradient>
        <linearGradient x1="100%" y1="50%" x2="0%" y2="50%" id="linearGradient-5">
            <stop stop-color="#F5F8FB" offset="0%"></stop>
            <stop stop-color="#E1E6ED" offset="100%"></stop>
        </linearGradient>
        <linearGradient x1="100%" y1="50%" x2="0%" y2="50%" id="linearGradient-6">
            <stop stop-color="#F5F8FB" offset="0%"></stop>
            <stop stop-color="#E1E6ED" offset="100%"></stop>
        </linearGradient>
        <linearGradient x1="100%" y1="50%" x2="0%" y2="50%" id="linearGradient-7">
            <stop stop-color="#F5F8FB" offset="0%"></stop>
            <stop stop-color="#E1E6ED" offset="100%"></stop>
        </linearGradient>
        <linearGradient x1="100%" y1="50%" x2="0%" y2="50%" id="linearGradient-8">
            <stop stop-color="#F5F8FB" offset="0%"></stop>
            <stop stop-color="#E1E6ED" offset="100%"></stop>
        </linearGradient>
        <linearGradient x1="100%" y1="50%" x2="0%" y2="50%" id="linearGradient-9">
            <stop stop-color="#F5F8FB" offset="0%"></stop>
            <stop stop-color="#E1E6ED" offset="100%"></stop>
        </linearGradient>
        <linearGradient x1="100%" y1="50%" x2="0%" y2="50%" id="linearGradient-10">
            <stop stop-color="#F5F8FB" offset="0%"></stop>
            <stop stop-color="#E1E6ED" offset="100%"></stop>
        </linearGradient>
        <linearGradient x1="100%" y1="50%" x2="0%" y2="50%" id="linearGradient-11">
            <stop stop-color="#F5F8FB" offset="0%"></stop>
            <stop stop-color="#E1E6ED" offset="100%"></stop>
        </linearGradient>
        <linearGradient x1="100%" y1="50%" x2="0%" y2="50%" id="linearGradient-12">
            <stop stop-color="#F5F8FB" offset="0%"></stop>
            <stop stop-color="#E1E6ED" offset="100%"></stop>
        </linearGradient>
    </defs>
    <g id="Loaders" stroke="none" stroke-width="1" fill="none" fill-rule="evenodd">
        <g id="Skeleton-Loader---Billing-Information" transform="translate(-16.000000, -1336.000000)">
            <g id="Group-3" transform="translate(16.000000, 1336.000000)">
                <g id="Group-Copy" transform="translate(0.000000, 390.000000)">
                    <rect id="Rectangle-Copy" fill="url(#linearGradient-1)" x="0" y="0" width="140" height="16" rx="1"></rect>
                    <rect id="Rectangle-Copy-12" fill="url(#linearGradient-2)" x="0" y="32" width="97" height="16" rx="1"></rect>
                    <rect id="Rectangle-Copy-46" fill="url(#linearGradient-2)" x="0" y="60" width="97" height="16" rx="1"></rect>
                    <rect id="Rectangle-Copy-17" fill="url(#linearGradient-3)" x="0" y="92" width="287" height="36" rx="1"></rect>
                    <rect id="Rectangle-Copy-3" fill="url(#linearGradient-4)" x="109" y="32" width="55" height="16" rx="1"></rect>
                    <rect id="Rectangle-Copy-47" fill="url(#linearGradient-4)" x="109" y="60" width="55" height="16" rx="1"></rect>
                </g>
                <g id="Group-Copy-2" transform="translate(0.000000, 542.000000)">
                    <rect id="Rectangle-Copy" fill="url(#linearGradient-5)" x="0" y="0" width="287" height="40" rx="1"></rect>
                    <rect id="Rectangle-Copy-2" fill="url(#linearGradient-6)" x="0" y="48" width="110" height="16" rx="1"></rect>
                </g>
                <g id="Group-Copy-3" transform="translate(0.000000, 630.000000)">
                    <rect id="Rectangle-Copy" fill="url(#linearGradient-7)" x="0" y="0" width="35" height="16" rx="1"></rect>
                    <rect id="Rectangle-Copy-12" fill="url(#linearGradient-8)" x="218" y="24" width="70" height="16" rx="1"></rect>
                    <rect id="Rectangle-Copy-3" fill="url(#linearGradient-4)" x="233" y="0" width="55" height="16" rx="1"></rect>
                </g>
                <rect id="Rectangle-Copy" fill="url(#linearGradient-9)" x="0" y="0" width="288" height="16" rx="1"></rect>
                <rect id="Rectangle-Copy-12" fill="url(#linearGradient-8)" x="0" y="24" width="70" height="16" rx="1"></rect>
                <g id="Group" transform="translate(0.000000, 64.000000)">
                    <rect id="Rectangle-Copy-17" fill="url(#linearGradient-10)" x="0" y="24" width="27" height="27" rx="1"></rect>
                    <rect id="Rectangle-Copy-24" fill="url(#linearGradient-8)" x="0" y="67" width="70" height="16" rx="1"></rect>
                    <rect id="Rectangle-Copy-43" fill="url(#linearGradient-8)" x="218" y="67" width="70" height="16" rx="1"></rect>
                    <rect id="Rectangle-Copy-16" fill="url(#linearGradient-11)" x="0" y="0" width="114" height="16" rx="1"></rect>
                    <rect id="Rectangle-Copy-45" fill="url(#linearGradient-9)" x="0" y="123" width="288" height="16" rx="1"></rect>
                    <rect id="Rectangle-Copy-23" fill="url(#linearGradient-11)" x="39" y="29" width="114" height="16" rx="1"></rect>
                    <rect id="Rectangle-Copy-25" fill="url(#linearGradient-12)" x="0" y="91" width="39" height="16" rx="1"></rect>
                    <rect id="Rectangle-Copy-44" fill="url(#linearGradient-12)" x="249" y="91" width="39" height="16" rx="1"></rect>
                </g>
                <g id="Group-Copy-4" transform="translate(0.000000, 227.000000)">
                    <rect id="Rectangle-Copy-17" fill="url(#linearGradient-10)" x="0" y="24" width="27" height="27" rx="1"></rect>
                    <rect id="Rectangle-Copy-24" fill="url(#linearGradient-8)" x="0" y="67" width="70" height="16" rx="1"></rect>
                    <rect id="Rectangle-Copy-43" fill="url(#linearGradient-8)" x="218" y="67" width="70" height="16" rx="1"></rect>
                    <rect id="Rectangle-Copy-16" fill="url(#linearGradient-11)" x="0" y="0" width="114" height="16" rx="1"></rect>
                    <rect id="Rectangle-Copy-45" fill="url(#linearGradient-9)" x="0" y="123" width="288" height="16" rx="1"></rect>
                    <rect id="Rectangle-Copy-23" fill="url(#linearGradient-11)" x="39" y="29" width="114" height="16" rx="1"></rect>
                    <rect id="Rectangle-Copy-25" fill="url(#linearGradient-12)" x="0" y="91" width="39" height="16" rx="1"></rect>
                    <rect id="Rectangle-Copy-44" fill="url(#linearGradient-12)" x="249" y="91" width="39" height="16" rx="1"></rect>
                </g>
            </g>
        </g>
    </g>
</svg>
