<svg xmlns="http://www.w3.org/2000/svg" xmlns:xlink="http://www.w3.org/1999/xlink" viewBox="0 0 288 354" version="1.1">
    <title>525E83F9-0C0E-4A01-B36B-DF79370890C4</title>
    <defs>
        <linearGradient x1="100%" y1="50%" x2="0%" y2="50%" id="linearGradient-1">
            <stop stop-color="#F5F8FB" offset="0%"/>
            <stop stop-color="#E1E6ED" offset="100%"/>
        </linearGradient>
        <linearGradient x1="100%" y1="50%" x2="0%" y2="50%" id="linearGradient-2">
            <stop stop-color="#F5F8FB" offset="0%"/>
            <stop stop-color="#E1E6ED" offset="100%"/>
        </linearGradient>
        <linearGradient x1="100%" y1="50%" x2="0%" y2="50%" id="linearGradient-3">
            <stop stop-color="#F5F8FB" offset="0%"/>
            <stop stop-color="#E1E6ED" offset="100%"/>
        </linearGradient>
        <linearGradient x1="100%" y1="50%" x2="0%" y2="50%" id="linearGradient-4">
            <stop stop-color="#F5F8FB" offset="0%"/>
            <stop stop-color="#E1E6ED" offset="100%"/>
        </linearGradient>
        <linearGradient x1="100%" y1="50%" x2="0%" y2="50%" id="linearGradient-5">
            <stop stop-color="#F5F8FB" offset="0%"/>
            <stop stop-color="#E1E6ED" offset="100%"/>
        </linearGradient>
    </defs>
    <g id="Skeleton-Loader" stroke="none" stroke-width="1" fill="none" fill-rule="evenodd">
        <g id="Skeleton-Loader---Booking-in-progress" transform="translate(-16.000000, -134.000000)">
            <g id="Booking-in-progress-card-Copy" transform="translate(16.000000, 134.000000)">
                <g id="Group-4">
                    <rect id="Rectangle" fill="#FFFFFF" x="0" y="0" width="288" height="354"/>
                    <rect id="Rectangle-Copy-11" fill="url(#linearGradient-1)" x="0" y="0" width="31" height="31" rx="1"/>
                    <rect id="Rectangle-Copy-22" fill="url(#linearGradient-2)" x="47" y="0" width="241" height="18" rx="1"/>
                    <rect id="Rectangle-Copy-30" fill="url(#linearGradient-2)" x="47" y="28" width="241" height="18" rx="1"/>
                    <rect id="Rectangle-Copy-31" fill="url(#linearGradient-2)" x="47" y="56" width="241" height="18" rx="1"/>
                    <rect id="Rectangle-Copy-26" fill="url(#linearGradient-2)" x="47" y="140" width="241" height="18" rx="1"/>
                    <rect id="Rectangle-Copy-28" fill="url(#linearGradient-3)" x="68" y="312" width="189" height="16" rx="1"/>
                    <rect id="Rectangle-Copy-29" fill="url(#linearGradient-4)" x="37" y="338" width="251" height="16" rx="1"/>
                    <rect id="Rectangle-Copy-21" fill="url(#linearGradient-1)" x="0" y="140" width="31" height="31" rx="1"/>
                    <rect id="Rectangle-Copy-27" fill="url(#linearGradient-5)" x="123" y="204" width="79" height="78" rx="1"/>
                </g>
            </g>
        </g>
    </g>
</svg>