<svg viewBox="0 0 288 184" version="1.1" xmlns="http://www.w3.org/2000/svg" xmlns:xlink="http://www.w3.org/1999/xlink">
  <title>
    0E3FDB50-40CD-4804-B271-3E7E94F8E265
  </title>
  <defs>
    <linearGradient x1="100%" y1="50%" x2="0%" y2="50%" id="linearGradient-1">
      <stop stop-color="#F5F8FB" offset="0%"/>
      <stop stop-color="#E1E6ED" offset="100%"/>
    </linearGradient>
    <linearGradient x1="100%" y1="50%" x2="0%" y2="50%" id="linearGradient-2">
      <stop stop-color="#F5F8FB" offset="0%"/>
      <stop stop-color="#E1E6ED" offset="100%"/>
    </linearGradient>
    <linearGradient x1="100%" y1="50%" x2="0%" y2="50%" id="linearGradient-3">
      <stop stop-color="#F5F8FB" offset="0%"/>
      <stop stop-color="#E1E6ED" offset="100%"/>
    </linearGradient>
  </defs>
  <g id="Skeleton-Loader" stroke="none" stroke-width="1" fill="none" fill-rule="evenodd">
    <g id="Skeleton-Loader---Traveler-Information" transform="translate(-16.000000, -166.000000)">
      <g id="Traveler-Info,-Billing-Info---Payment-Summary-Card-Copy" transform="translate(16.000000, 166.000000)">
        <rect id="Rectangle" fill="#FFFFFF" x="0" y="0" width="288" height="184"/>
        <rect id="Rectangle-Copy" fill="url(#linearGradient-1)" x="0" y="0" width="140" height="24" rx="1"/>
        <rect id="Rectangle-Copy-2" fill="url(#linearGradient-2)" x="0" y="48" width="80" height="16" rx="1"/>
        <rect id="Rectangle-Copy-4" fill="url(#linearGradient-2)" x="0" y="88" width="80" height="16" rx="1"/>
        <rect id="Rectangle-Copy-7" fill="url(#linearGradient-2)" x="0" y="128" width="80" height="16" rx="1"/>
        <rect id="Rectangle-Copy-9" fill="url(#linearGradient-2)" x="0" y="168" width="80" height="16" rx="1"/>
        <rect id="Rectangle-Copy-3" fill="url(#linearGradient-3)" x="258" y="48" width="30" height="16" rx="1"/>
        <rect id="Rectangle-Copy-5" fill="url(#linearGradient-3)" x="258" y="88" width="30" height="16" rx="1"/>
        <rect id="Rectangle-Copy-8" fill="url(#linearGradient-3)" x="258" y="128" width="30" height="16" rx="1"/>
        <rect id="Rectangle-Copy-10" fill="url(#linearGradient-3)" x="258" y="168" width="30" height="16" rx="1"/>
      </g>
    </g>
  </g>
</svg>
