<svg viewBox="0 0 288 536" version="1.1" xmlns="http://www.w3.org/2000/svg" xmlns:xlink="http://www.w3.org/1999/xlink">
    <title>7CDBA921-3A6E-41AA-8D68-A58EDC994250</title>
    <defs>
        <linearGradient x1="100%" y1="50%" x2="0%" y2="50%" id="linearGradient-1">
            <stop stop-color="#F5F8FB" offset="0%"></stop>
            <stop stop-color="#E1E6ED" offset="100%"></stop>
        </linearGradient>
        <linearGradient x1="100%" y1="50%" x2="0%" y2="50%" id="linearGradient-2">
            <stop stop-color="#F5F8FB" offset="0%"></stop>
            <stop stop-color="#E1E6ED" offset="100%"></stop>
        </linearGradient>
        <linearGradient x1="100%" y1="50%" x2="0%" y2="50%" id="linearGradient-3">
            <stop stop-color="#F5F8FB" offset="0%"></stop>
            <stop stop-color="#E1E6ED" offset="100%"></stop>
        </linearGradient>
        <linearGradient x1="100%" y1="50%" x2="0%" y2="50%" id="linearGradient-4">
            <stop stop-color="#F5F8FB" offset="0%"></stop>
            <stop stop-color="#E1E6ED" offset="100%"></stop>
        </linearGradient>
        <linearGradient x1="100%" y1="50%" x2="0%" y2="50%" id="linearGradient-5">
            <stop stop-color="#F5F8FB" offset="0%"></stop>
            <stop stop-color="#E1E6ED" offset="100%"></stop>
        </linearGradient>
    </defs>
    <g id="Skeleton-Loader" stroke="none" stroke-width="1" fill="none" fill-rule="evenodd">
        <g id="Skeleton-Loader---Traveler-Information" transform="translate(-16.000000, -990.000000)">
            <g id="Hotel,Car,Activity-Traveler-info-card-Copy" transform="translate(16.000000, 990.000000)">
                <rect id="Rectangle" fill="#FFFFFF" x="0" y="0" width="288" height="536"></rect>
                <rect id="Rectangle-Copy-33" fill="url(#linearGradient-1)" x="0" y="520" width="288" height="16" rx="1"></rect>
                <rect id="Rectangle-Copy" fill="url(#linearGradient-2)" x="0" y="0" width="140" height="16" rx="1"></rect>
                <rect id="Rectangle-Copy-12" fill="url(#linearGradient-3)" x="0" y="24" width="70" height="16" rx="1"></rect>
                <rect id="Rectangle-Copy-4" fill="url(#linearGradient-4)" x="0" y="80" width="288" height="56" rx="1"></rect>
                <rect id="Rectangle-Copy-6" fill="url(#linearGradient-4)" x="0" y="152" width="288" height="56" rx="1"></rect>
                <rect id="Rectangle-Copy-11" fill="url(#linearGradient-4)" x="0" y="224" width="288" height="56" rx="1"></rect>
                <rect id="Rectangle-Copy-13" fill="url(#linearGradient-4)" x="0" y="296" width="288" height="56" rx="1"></rect>
                <rect id="Rectangle-Copy-14" fill="url(#linearGradient-4)" x="0" y="368" width="288" height="56" rx="1"></rect>
                <rect id="Rectangle-Copy-15" fill="url(#linearGradient-5)" x="0" y="440" width="88" height="56" rx="1"></rect>
                <rect id="Rectangle-Copy-16" fill="url(#linearGradient-5)" x="100" y="440" width="88" height="56" rx="1"></rect>
                <rect id="Rectangle-Copy-17" fill="url(#linearGradient-5)" x="200" y="440" width="88" height="56" rx="1"></rect>
            </g>
        </g>
    </g>
    </svg>
