<svg viewBox="0 0 288 968" version="1.1" xmlns="http://www.w3.org/2000/svg" xmlns:xlink="http://www.w3.org/1999/xlink">
<title>75CFC3D9-9725-41E1-90E9-6782DF64F3B7</title>
<defs>
    <linearGradient x1="100%" y1="50%" x2="0%" y2="50%" id="linearGradient-1">
        <stop stop-color="#F5F8FB" offset="0%"></stop>
        <stop stop-color="#E1E6ED" offset="100%"></stop>
    </linearGradient>
    <linearGradient x1="100%" y1="50%" x2="0%" y2="50%" id="linearGradient-2">
        <stop stop-color="#F5F8FB" offset="0%"></stop>
        <stop stop-color="#E1E6ED" offset="100%"></stop>
    </linearGradient>
    <linearGradient x1="100%" y1="50%" x2="0%" y2="50%" id="linearGradient-3">
        <stop stop-color="#F5F8FB" offset="0%"></stop>
        <stop stop-color="#E1E6ED" offset="100%"></stop>
    </linearGradient>
    <linearGradient x1="100%" y1="50%" x2="0%" y2="50%" id="linearGradient-4">
        <stop stop-color="#F5F8FB" offset="0%"></stop>
        <stop stop-color="#E1E6ED" offset="100%"></stop>
    </linearGradient>
    <linearGradient x1="100%" y1="50%" x2="0%" y2="50%" id="linearGradient-5">
        <stop stop-color="#F5F8FB" offset="0%"></stop>
        <stop stop-color="#E1E6ED" offset="100%"></stop>
    </linearGradient>
    <linearGradient x1="100%" y1="50%" x2="0%" y2="50%" id="linearGradient-6">
        <stop stop-color="#F5F8FB" offset="0%"></stop>
        <stop stop-color="#E1E6ED" offset="100%"></stop>
    </linearGradient>
    <linearGradient x1="100%" y1="50%" x2="0%" y2="50%" id="linearGradient-7">
        <stop stop-color="#F5F8FB" offset="0%"></stop>
        <stop stop-color="#E1E6ED" offset="100%"></stop>
    </linearGradient>
    <linearGradient x1="100%" y1="50%" x2="0%" y2="50%" id="linearGradient-8">
        <stop stop-color="#F5F8FB" offset="0%"></stop>
        <stop stop-color="#E1E6ED" offset="100%"></stop>
    </linearGradient>
</defs>
<g id="Skeleton-Loader" stroke="none" stroke-width="1" fill="none" fill-rule="evenodd">
    <g id="Skeleton-Loader---Billing-Information" transform="translate(-16.000000, -1382.000000)">
        <g id="traveler+product-detail-card-copy" transform="translate(16.000000, 1382.000000)">
            <rect id="Rectangle" fill="#FFFFFF" x="0" y="0" width="288" height="968"></rect>
            <g id="Group" transform="translate(0.000000, 256.000000)">
                <rect id="Rectangle-Copy" fill="url(#linearGradient-1)" x="0" y="0" width="140" height="16" rx="1"></rect>
                <rect id="Rectangle-Copy-12" fill="url(#linearGradient-2)" x="0" y="24" width="70" height="16" rx="1"></rect>
                <rect id="Rectangle-Copy-17" fill="url(#linearGradient-3)" x="0" y="88" width="287" height="16" rx="1"></rect>
                <rect id="Rectangle-Copy-20" fill="url(#linearGradient-4)" x="0" y="112" width="194" height="16" rx="1"></rect>
                <rect id="Rectangle-Copy-2" fill="url(#linearGradient-5)" x="0" y="48" width="110" height="16" rx="1"></rect>
                <rect id="Rectangle-Copy-3" fill="url(#linearGradient-6)" x="233" y="0" width="55" height="16" rx="1"></rect>
            </g>
            <g id="Group-Copy" transform="translate(0.000000, 408.000000)">
                <rect id="Rectangle-Copy" fill="url(#linearGradient-1)" x="0" y="0" width="140" height="16" rx="1"></rect>
                <rect id="Rectangle-Copy-12" fill="url(#linearGradient-2)" x="0" y="24" width="70" height="16" rx="1"></rect>
                <rect id="Rectangle-Copy-17" fill="url(#linearGradient-3)" x="0" y="88" width="287" height="16" rx="1"></rect>
                <rect id="Rectangle-Copy-20" fill="url(#linearGradient-4)" x="0" y="112" width="194" height="16" rx="1"></rect>
                <rect id="Rectangle-Copy-2" fill="url(#linearGradient-5)" x="0" y="48" width="110" height="16" rx="1"></rect>
                <rect id="Rectangle-Copy-3" fill="url(#linearGradient-6)" x="233" y="0" width="55" height="16" rx="1"></rect>
            </g>
            <g id="Group-Copy-2" transform="translate(0.000000, 560.000000)">
                <rect id="Rectangle-Copy" fill="url(#linearGradient-1)" x="0" y="0" width="140" height="16" rx="1"></rect>
                <rect id="Rectangle-Copy-12" fill="url(#linearGradient-2)" x="0" y="24" width="70" height="16" rx="1"></rect>
                <rect id="Rectangle-Copy-17" fill="url(#linearGradient-3)" x="0" y="88" width="287" height="16" rx="1"></rect>
                <rect id="Rectangle-Copy-20" fill="url(#linearGradient-4)" x="0" y="112" width="194" height="16" rx="1"></rect>
                <rect id="Rectangle-Copy-2" fill="url(#linearGradient-5)" x="0" y="48" width="110" height="16" rx="1"></rect>
                <rect id="Rectangle-Copy-3" fill="url(#linearGradient-6)" x="233" y="0" width="55" height="16" rx="1"></rect>
            </g>
            <g id="Group-Copy-3" transform="translate(0.000000, 712.000000)">
                <rect id="Rectangle-Copy" fill="url(#linearGradient-1)" x="0" y="0" width="140" height="16" rx="1"></rect>
                <rect id="Rectangle-Copy-26" fill="url(#linearGradient-1)" x="0" y="176" width="140" height="16" rx="1"></rect>
                <rect id="Rectangle-Copy-29" fill="url(#linearGradient-1)" x="0" y="200" width="140" height="16" rx="1"></rect>
                <rect id="Rectangle-Copy-31" fill="url(#linearGradient-7)" x="0" y="240" width="288" height="16" rx="1"></rect>
                <rect id="Rectangle-Copy-12" fill="url(#linearGradient-2)" x="0" y="24" width="70" height="16" rx="1"></rect>
                <rect id="Rectangle-Copy-17" fill="url(#linearGradient-3)" x="0" y="88" width="287" height="16" rx="1"></rect>
                <rect id="Rectangle-Copy-20" fill="url(#linearGradient-4)" x="0" y="112" width="194" height="16" rx="1"></rect>
                <rect id="Rectangle-Copy-2" fill="url(#linearGradient-5)" x="0" y="48" width="110" height="16" rx="1"></rect>
                <rect id="Rectangle-Copy-3" fill="url(#linearGradient-6)" x="233" y="0" width="55" height="16" rx="1"></rect>
                <rect id="Rectangle-Copy-27" fill="url(#linearGradient-6)" x="233" y="176" width="55" height="16" rx="1"></rect>
                <rect id="Rectangle-Copy-30" fill="url(#linearGradient-6)" x="233" y="200" width="55" height="16" rx="1"></rect>
            </g>
            <rect id="Rectangle-Copy" fill="url(#linearGradient-1)" x="0" y="0" width="140" height="16" rx="1"></rect>
            <rect id="Rectangle-Copy-12" fill="url(#linearGradient-2)" x="0" y="40" width="70" height="16" rx="1"></rect>
            <rect id="Rectangle-Copy-17" fill="url(#linearGradient-2)" x="0" y="104" width="70" height="16" rx="1"></rect>
            <rect id="Rectangle-Copy-24" fill="url(#linearGradient-2)" x="0" y="168" width="70" height="16" rx="1"></rect>
            <rect id="Rectangle-Copy-16" fill="url(#linearGradient-7)" x="0" y="64" width="288" height="16" rx="1"></rect>
            <rect id="Rectangle-Copy-23" fill="url(#linearGradient-7)" x="0" y="128" width="288" height="16" rx="1"></rect>
            <rect id="Rectangle-Copy-25" fill="url(#linearGradient-8)" x="0" y="192" width="144" height="16" rx="1"></rect>
        </g>
    </g>
</g>
</svg>
