<?xml version="1.0" encoding="UTF-8"?>
<svg viewBox="0 0 288 281" version="1.1" xmlns="http://www.w3.org/2000/svg" xmlns:xlink="http://www.w3.org/1999/xlink">
    <title>DB697736-989E-4FA9-8579-6021A4ED827C</title>
    <defs>
        <linearGradient x1="100%" y1="50%" x2="0%" y2="50%" id="linearGradient-1">
            <stop stop-color="#F5F8FB" offset="0%"></stop>
            <stop stop-color="#E1E6ED" offset="100%"></stop>
        </linearGradient>
        <linearGradient x1="100%" y1="50%" x2="0%" y2="50%" id="linearGradient-2">
            <stop stop-color="#F5F8FB" offset="0%"></stop>
            <stop stop-color="#E1E6ED" offset="100%"></stop>
        </linearGradient>
        <linearGradient x1="100%" y1="50%" x2="0%" y2="50%" id="linearGradient-3">
            <stop stop-color="#F5F8FB" offset="0%"></stop>
            <stop stop-color="#E1E6ED" offset="100%"></stop>
        </linearGradient>
        <linearGradient x1="100%" y1="50%" x2="0%" y2="50%" id="linearGradient-4">
            <stop stop-color="#F5F8FB" offset="0%"></stop>
            <stop stop-color="#E1E6ED" offset="100%"></stop>
        </linearGradient>
        <linearGradient x1="100%" y1="50%" x2="0%" y2="50%" id="linearGradient-5">
            <stop stop-color="#F5F8FB" offset="0%"></stop>
            <stop stop-color="#E1E6ED" offset="100%"></stop>
        </linearGradient>
    </defs>
    <g id="Loaders" stroke="none" stroke-width="1" fill="none" fill-rule="evenodd">
        <g id="Skeleton-Loader---Trip-cart" transform="translate(-16.000000, -2225.000000)">
            <g id="Trip-Cart---Payment-Summary-card-(CLP)-Copy" transform="translate(16.000000, 2225.000000)">
                <rect id="Rectangle" fill="#FFFFFF" x="0" y="0" width="288" height="265"></rect>
                <rect id="Rectangle-Copy" fill="url(#linearGradient-1)" x="0" y="0" width="288" height="48" rx="1"></rect>
                <rect id="Rectangle-Copy-2" fill="url(#linearGradient-2)" x="0" y="64" width="80" height="16" rx="1"></rect>
                <rect id="Rectangle-Copy-4" fill="url(#linearGradient-2)" x="0" y="104" width="80" height="16" rx="1"></rect>
                <rect id="Rectangle-Copy-7" fill="url(#linearGradient-2)" x="0" y="184" width="80" height="16" rx="1"></rect>
                <rect id="Rectangle-Copy-65" fill="url(#linearGradient-3)" x="0" y="144" width="174" height="16" rx="1"></rect>
                <rect id="Rectangle-Copy-9" fill="url(#linearGradient-2)" x="0" y="224" width="80" height="16" rx="1"></rect>
                <rect id="Rectangle-Copy-11" fill="url(#linearGradient-4)" x="135" y="264" width="152" height="17" rx="1"></rect>
                <rect id="Rectangle-Copy-3" fill="url(#linearGradient-5)" x="258" y="64" width="30" height="16" rx="1"></rect>
                <rect id="Rectangle-Copy-5" fill="url(#linearGradient-5)" x="258" y="104" width="30" height="16" rx="1"></rect>
                <rect id="Rectangle-Copy-8" fill="url(#linearGradient-5)" x="258" y="184" width="30" height="16" rx="1"></rect>
                <rect id="Rectangle-Copy-10" fill="url(#linearGradient-5)" x="258" y="224" width="30" height="16" rx="1"></rect>
            </g>
        </g>
    </g>
</svg>